<mxfile host="app.diagrams.net" modified="2023-03-30T19:49:18.031Z" agent="Mozilla/5.0 (Windows NT 10.0; Win64; x64) AppleWebKit/537.36 (KHTML, like Gecko) Chrome/111.0.0.0 Safari/537.36" etag="UwkSyI0DuXZtNFvL2G5Y" version="21.1.1" type="device">
  <diagram id="WXVbP6FFlm1R8qoLBlSh" name="Страница 1">
    <mxGraphModel dx="1050" dy="581" grid="1" gridSize="10" guides="1" tooltips="1" connect="1" arrows="1" fold="1" page="1" pageScale="1" pageWidth="827" pageHeight="1169" math="0" shadow="0">
      <root>
        <mxCell id="0" />
        <mxCell id="1" parent="0" />
        <mxCell id="tQxNLTfu2ACjaL9QGIqL-49" value="Product" style="shape=table;startSize=30;container=1;collapsible=1;childLayout=tableLayout;fixedRows=1;rowLines=0;fontStyle=1;align=center;resizeLast=1;" parent="1" vertex="1">
          <mxGeometry x="490" y="140" width="300" height="116" as="geometry">
            <mxRectangle x="320" y="180" width="70" height="30" as="alternateBounds" />
          </mxGeometry>
        </mxCell>
        <mxCell id="tQxNLTfu2ACjaL9QGIqL-50" value="" style="shape=tableRow;horizontal=0;startSize=0;swimlaneHead=0;swimlaneBody=0;fillColor=none;collapsible=0;dropTarget=0;points=[[0,0.5],[1,0.5]];portConstraint=eastwest;top=0;left=0;right=0;bottom=1;" parent="tQxNLTfu2ACjaL9QGIqL-49" vertex="1">
          <mxGeometry y="30" width="300" height="30" as="geometry" />
        </mxCell>
        <mxCell id="tQxNLTfu2ACjaL9QGIqL-51" value="PK" style="shape=partialRectangle;connectable=0;fillColor=none;top=0;left=0;bottom=0;right=0;fontStyle=1;overflow=hidden;" parent="tQxNLTfu2ACjaL9QGIqL-50" vertex="1">
          <mxGeometry width="30" height="30" as="geometry">
            <mxRectangle width="30" height="30" as="alternateBounds" />
          </mxGeometry>
        </mxCell>
        <mxCell id="tQxNLTfu2ACjaL9QGIqL-52" value="ProductID         integer                   NOT NULL" style="shape=partialRectangle;connectable=0;fillColor=none;top=0;left=0;bottom=0;right=0;align=left;spacingLeft=6;fontStyle=1;overflow=hidden;" parent="tQxNLTfu2ACjaL9QGIqL-50" vertex="1">
          <mxGeometry x="30" width="270" height="30" as="geometry">
            <mxRectangle width="270" height="30" as="alternateBounds" />
          </mxGeometry>
        </mxCell>
        <mxCell id="tQxNLTfu2ACjaL9QGIqL-53" value="" style="shape=tableRow;horizontal=0;startSize=0;swimlaneHead=0;swimlaneBody=0;fillColor=none;collapsible=0;dropTarget=0;points=[[0,0.5],[1,0.5]];portConstraint=eastwest;top=0;left=0;right=0;bottom=0;" parent="tQxNLTfu2ACjaL9QGIqL-49" vertex="1">
          <mxGeometry y="60" width="300" height="56" as="geometry" />
        </mxCell>
        <mxCell id="tQxNLTfu2ACjaL9QGIqL-54" value="" style="shape=partialRectangle;connectable=0;fillColor=none;top=0;left=0;bottom=0;right=0;editable=1;overflow=hidden;" parent="tQxNLTfu2ACjaL9QGIqL-53" vertex="1">
          <mxGeometry width="30" height="56" as="geometry">
            <mxRectangle width="30" height="56" as="alternateBounds" />
          </mxGeometry>
        </mxCell>
        <mxCell id="tQxNLTfu2ACjaL9QGIqL-55" value="ProductName    character varying    NOT NULL       &#xa;&#xa;Type                  character varying    NOT NULL" style="shape=partialRectangle;connectable=0;fillColor=none;top=0;left=0;bottom=0;right=0;align=left;spacingLeft=6;overflow=hidden;" parent="tQxNLTfu2ACjaL9QGIqL-53" vertex="1">
          <mxGeometry x="30" width="270" height="56" as="geometry">
            <mxRectangle width="270" height="56" as="alternateBounds" />
          </mxGeometry>
        </mxCell>
        <mxCell id="tQxNLTfu2ACjaL9QGIqL-56" value="Client" style="shape=table;startSize=30;container=1;collapsible=1;childLayout=tableLayout;fixedRows=1;rowLines=0;fontStyle=1;align=center;resizeLast=1;" parent="1" vertex="1">
          <mxGeometry x="40" y="30" width="310" height="149" as="geometry">
            <mxRectangle x="320" y="180" width="70" height="30" as="alternateBounds" />
          </mxGeometry>
        </mxCell>
        <mxCell id="tQxNLTfu2ACjaL9QGIqL-57" value="" style="shape=tableRow;horizontal=0;startSize=0;swimlaneHead=0;swimlaneBody=0;fillColor=none;collapsible=0;dropTarget=0;points=[[0,0.5],[1,0.5]];portConstraint=eastwest;top=0;left=0;right=0;bottom=1;" parent="tQxNLTfu2ACjaL9QGIqL-56" vertex="1">
          <mxGeometry y="30" width="310" height="30" as="geometry" />
        </mxCell>
        <mxCell id="tQxNLTfu2ACjaL9QGIqL-58" value="PK" style="shape=partialRectangle;connectable=0;fillColor=none;top=0;left=0;bottom=0;right=0;fontStyle=1;overflow=hidden;" parent="tQxNLTfu2ACjaL9QGIqL-57" vertex="1">
          <mxGeometry width="30" height="30" as="geometry">
            <mxRectangle width="30" height="30" as="alternateBounds" />
          </mxGeometry>
        </mxCell>
        <mxCell id="tQxNLTfu2ACjaL9QGIqL-59" value="ClientID            integer                      NOT NULL" style="shape=partialRectangle;connectable=0;fillColor=none;top=0;left=0;bottom=0;right=0;align=left;spacingLeft=6;fontStyle=1;overflow=hidden;" parent="tQxNLTfu2ACjaL9QGIqL-57" vertex="1">
          <mxGeometry x="30" width="280" height="30" as="geometry">
            <mxRectangle width="280" height="30" as="alternateBounds" />
          </mxGeometry>
        </mxCell>
        <mxCell id="tQxNLTfu2ACjaL9QGIqL-60" value="" style="shape=tableRow;horizontal=0;startSize=0;swimlaneHead=0;swimlaneBody=0;fillColor=none;collapsible=0;dropTarget=0;points=[[0,0.5],[1,0.5]];portConstraint=eastwest;top=0;left=0;right=0;bottom=0;" parent="tQxNLTfu2ACjaL9QGIqL-56" vertex="1">
          <mxGeometry y="60" width="310" height="89" as="geometry" />
        </mxCell>
        <mxCell id="tQxNLTfu2ACjaL9QGIqL-61" value="" style="shape=partialRectangle;connectable=0;fillColor=none;top=0;left=0;bottom=0;right=0;editable=1;overflow=hidden;" parent="tQxNLTfu2ACjaL9QGIqL-60" vertex="1">
          <mxGeometry width="30" height="89" as="geometry">
            <mxRectangle width="30" height="89" as="alternateBounds" />
          </mxGeometry>
        </mxCell>
        <mxCell id="tQxNLTfu2ACjaL9QGIqL-62" value="FIO                    character varying      NOT NULL    &#xa;&#xa;Address             character varying      NOT NULL&#xa;&#xa;PhoneNumber   character varying      NOT NULL" style="shape=partialRectangle;connectable=0;fillColor=none;top=0;left=0;bottom=0;right=0;align=left;spacingLeft=6;overflow=hidden;verticalAlign=top;" parent="tQxNLTfu2ACjaL9QGIqL-60" vertex="1">
          <mxGeometry x="30" width="280" height="89" as="geometry">
            <mxRectangle width="280" height="89" as="alternateBounds" />
          </mxGeometry>
        </mxCell>
        <mxCell id="tQxNLTfu2ACjaL9QGIqL-63" value="Order" style="shape=table;startSize=30;container=1;collapsible=1;childLayout=tableLayout;fixedRows=1;rowLines=0;fontStyle=1;align=center;resizeLast=1;" parent="1" vertex="1">
          <mxGeometry x="200" y="200" width="255" height="170" as="geometry">
            <mxRectangle x="320" y="180" width="70" height="30" as="alternateBounds" />
          </mxGeometry>
        </mxCell>
        <mxCell id="tQxNLTfu2ACjaL9QGIqL-64" value="" style="shape=tableRow;horizontal=0;startSize=0;swimlaneHead=0;swimlaneBody=0;fillColor=none;collapsible=0;dropTarget=0;points=[[0,0.5],[1,0.5]];portConstraint=eastwest;top=0;left=0;right=0;bottom=1;" parent="tQxNLTfu2ACjaL9QGIqL-63" vertex="1">
          <mxGeometry y="30" width="255" height="30" as="geometry" />
        </mxCell>
        <mxCell id="tQxNLTfu2ACjaL9QGIqL-65" value="PK" style="shape=partialRectangle;connectable=0;fillColor=none;top=0;left=0;bottom=0;right=0;fontStyle=1;overflow=hidden;" parent="tQxNLTfu2ACjaL9QGIqL-64" vertex="1">
          <mxGeometry width="30" height="30" as="geometry">
            <mxRectangle width="30" height="30" as="alternateBounds" />
          </mxGeometry>
        </mxCell>
        <mxCell id="tQxNLTfu2ACjaL9QGIqL-66" value="OrderID            integer        NOT NULL" style="shape=partialRectangle;connectable=0;fillColor=none;top=0;left=0;bottom=0;right=0;align=left;spacingLeft=6;fontStyle=1;overflow=hidden;" parent="tQxNLTfu2ACjaL9QGIqL-64" vertex="1">
          <mxGeometry x="30" width="225" height="30" as="geometry">
            <mxRectangle width="225" height="30" as="alternateBounds" />
          </mxGeometry>
        </mxCell>
        <mxCell id="tQxNLTfu2ACjaL9QGIqL-67" value="" style="shape=tableRow;horizontal=0;startSize=0;swimlaneHead=0;swimlaneBody=0;fillColor=none;collapsible=0;dropTarget=0;points=[[0,0.5],[1,0.5]];portConstraint=eastwest;top=0;left=0;right=0;bottom=0;" parent="tQxNLTfu2ACjaL9QGIqL-63" vertex="1">
          <mxGeometry y="60" width="255" height="110" as="geometry" />
        </mxCell>
        <mxCell id="tQxNLTfu2ACjaL9QGIqL-68" value="FK&#xa;&#xa;FK" style="shape=partialRectangle;connectable=0;fillColor=none;top=0;left=0;bottom=0;right=0;editable=1;overflow=hidden;verticalAlign=top;" parent="tQxNLTfu2ACjaL9QGIqL-67" vertex="1">
          <mxGeometry width="30" height="110" as="geometry">
            <mxRectangle width="30" height="110" as="alternateBounds" />
          </mxGeometry>
        </mxCell>
        <mxCell id="tQxNLTfu2ACjaL9QGIqL-69" value="ClientID             integer          NOT NULL        &#xa;&#xa;ProductID          integer          NOT NULL&#xa;&#xa;ProductCount    integer          NOT NULL&#xa;&#xa;Date                  timestamp     NOT NULL" style="shape=partialRectangle;connectable=0;fillColor=none;top=0;left=0;bottom=0;right=0;align=left;spacingLeft=6;overflow=hidden;verticalAlign=top;" parent="tQxNLTfu2ACjaL9QGIqL-67" vertex="1">
          <mxGeometry x="30" width="225" height="110" as="geometry">
            <mxRectangle width="225" height="110" as="alternateBounds" />
          </mxGeometry>
        </mxCell>
        <mxCell id="tQxNLTfu2ACjaL9QGIqL-70" value="Vendor" style="shape=table;startSize=30;container=1;collapsible=1;childLayout=tableLayout;fixedRows=1;rowLines=0;fontStyle=1;align=center;resizeLast=1;" parent="1" vertex="1">
          <mxGeometry x="490" y="490" width="300" height="149" as="geometry">
            <mxRectangle x="320" y="180" width="70" height="30" as="alternateBounds" />
          </mxGeometry>
        </mxCell>
        <mxCell id="tQxNLTfu2ACjaL9QGIqL-71" value="" style="shape=tableRow;horizontal=0;startSize=0;swimlaneHead=0;swimlaneBody=0;fillColor=none;collapsible=0;dropTarget=0;points=[[0,0.5],[1,0.5]];portConstraint=eastwest;top=0;left=0;right=0;bottom=1;" parent="tQxNLTfu2ACjaL9QGIqL-70" vertex="1">
          <mxGeometry y="30" width="300" height="30" as="geometry" />
        </mxCell>
        <mxCell id="tQxNLTfu2ACjaL9QGIqL-72" value="PK" style="shape=partialRectangle;connectable=0;fillColor=none;top=0;left=0;bottom=0;right=0;fontStyle=1;overflow=hidden;" parent="tQxNLTfu2ACjaL9QGIqL-71" vertex="1">
          <mxGeometry width="30" height="30" as="geometry">
            <mxRectangle width="30" height="30" as="alternateBounds" />
          </mxGeometry>
        </mxCell>
        <mxCell id="tQxNLTfu2ACjaL9QGIqL-73" value="VendorID           integer                   NOT NULL" style="shape=partialRectangle;connectable=0;fillColor=none;top=0;left=0;bottom=0;right=0;align=left;spacingLeft=6;fontStyle=1;overflow=hidden;" parent="tQxNLTfu2ACjaL9QGIqL-71" vertex="1">
          <mxGeometry x="30" width="270" height="30" as="geometry">
            <mxRectangle width="270" height="30" as="alternateBounds" />
          </mxGeometry>
        </mxCell>
        <mxCell id="tQxNLTfu2ACjaL9QGIqL-74" value="" style="shape=tableRow;horizontal=0;startSize=0;swimlaneHead=0;swimlaneBody=0;fillColor=none;collapsible=0;dropTarget=0;points=[[0,0.5],[1,0.5]];portConstraint=eastwest;top=0;left=0;right=0;bottom=0;" parent="tQxNLTfu2ACjaL9QGIqL-70" vertex="1">
          <mxGeometry y="60" width="300" height="89" as="geometry" />
        </mxCell>
        <mxCell id="tQxNLTfu2ACjaL9QGIqL-75" value="" style="shape=partialRectangle;connectable=0;fillColor=none;top=0;left=0;bottom=0;right=0;editable=1;overflow=hidden;" parent="tQxNLTfu2ACjaL9QGIqL-74" vertex="1">
          <mxGeometry width="30" height="89" as="geometry">
            <mxRectangle width="30" height="89" as="alternateBounds" />
          </mxGeometry>
        </mxCell>
        <mxCell id="tQxNLTfu2ACjaL9QGIqL-76" value="Name                 character varying    NOT NULL&#xa;&#xa;Address             character varying    NOT NULL&#xa; &#xa;PhoneNumber   character varying    NOT NULL" style="shape=partialRectangle;connectable=0;fillColor=none;top=0;left=0;bottom=0;right=0;align=left;spacingLeft=6;overflow=hidden;verticalAlign=top;" parent="tQxNLTfu2ACjaL9QGIqL-74" vertex="1">
          <mxGeometry x="30" width="270" height="89" as="geometry">
            <mxRectangle width="270" height="89" as="alternateBounds" />
          </mxGeometry>
        </mxCell>
        <mxCell id="tQxNLTfu2ACjaL9QGIqL-77" value="Delivery" style="shape=table;startSize=30;container=1;collapsible=1;childLayout=tableLayout;fixedRows=1;rowLines=0;fontStyle=1;align=center;resizeLast=1;" parent="1" vertex="1">
          <mxGeometry x="200" y="400" width="255" height="170" as="geometry">
            <mxRectangle x="320" y="180" width="70" height="30" as="alternateBounds" />
          </mxGeometry>
        </mxCell>
        <mxCell id="tQxNLTfu2ACjaL9QGIqL-78" value="" style="shape=tableRow;horizontal=0;startSize=0;swimlaneHead=0;swimlaneBody=0;fillColor=none;collapsible=0;dropTarget=0;points=[[0,0.5],[1,0.5]];portConstraint=eastwest;top=0;left=0;right=0;bottom=1;" parent="tQxNLTfu2ACjaL9QGIqL-77" vertex="1">
          <mxGeometry y="30" width="255" height="30" as="geometry" />
        </mxCell>
        <mxCell id="tQxNLTfu2ACjaL9QGIqL-79" value="PK" style="shape=partialRectangle;connectable=0;fillColor=none;top=0;left=0;bottom=0;right=0;fontStyle=1;overflow=hidden;" parent="tQxNLTfu2ACjaL9QGIqL-78" vertex="1">
          <mxGeometry width="30" height="30" as="geometry">
            <mxRectangle width="30" height="30" as="alternateBounds" />
          </mxGeometry>
        </mxCell>
        <mxCell id="tQxNLTfu2ACjaL9QGIqL-80" value="DeliveryID       integer          NOT NULL" style="shape=partialRectangle;connectable=0;fillColor=none;top=0;left=0;bottom=0;right=0;align=left;spacingLeft=6;fontStyle=1;overflow=hidden;" parent="tQxNLTfu2ACjaL9QGIqL-78" vertex="1">
          <mxGeometry x="30" width="225" height="30" as="geometry">
            <mxRectangle width="225" height="30" as="alternateBounds" />
          </mxGeometry>
        </mxCell>
        <mxCell id="tQxNLTfu2ACjaL9QGIqL-81" value="" style="shape=tableRow;horizontal=0;startSize=0;swimlaneHead=0;swimlaneBody=0;fillColor=none;collapsible=0;dropTarget=0;points=[[0,0.5],[1,0.5]];portConstraint=eastwest;top=0;left=0;right=0;bottom=0;" parent="tQxNLTfu2ACjaL9QGIqL-77" vertex="1">
          <mxGeometry y="60" width="255" height="110" as="geometry" />
        </mxCell>
        <mxCell id="tQxNLTfu2ACjaL9QGIqL-82" value="FK&#xa;&#xa;FK" style="shape=partialRectangle;connectable=0;fillColor=none;top=0;left=0;bottom=0;right=0;editable=1;overflow=hidden;verticalAlign=top;" parent="tQxNLTfu2ACjaL9QGIqL-81" vertex="1">
          <mxGeometry width="30" height="110" as="geometry">
            <mxRectangle width="30" height="110" as="alternateBounds" />
          </mxGeometry>
        </mxCell>
        <mxCell id="tQxNLTfu2ACjaL9QGIqL-83" value="VendorID          integer           NOT NULL&#xa;&#xa;ProductID         integer           NOT NULL&#xa;&#xa;ProductCount   integer           NOT NULL&#xa;&#xa;Date                 timestamp     NOT NULL" style="shape=partialRectangle;connectable=0;fillColor=none;top=0;left=0;bottom=0;right=0;align=left;spacingLeft=6;overflow=hidden;verticalAlign=top;" parent="tQxNLTfu2ACjaL9QGIqL-81" vertex="1">
          <mxGeometry x="30" width="225" height="110" as="geometry">
            <mxRectangle width="225" height="110" as="alternateBounds" />
          </mxGeometry>
        </mxCell>
        <mxCell id="tQxNLTfu2ACjaL9QGIqL-84" value="" style="edgeStyle=orthogonalEdgeStyle;fontSize=12;html=1;endArrow=ERzeroToMany;startArrow=ERmandOne;rounded=0;entryX=0;entryY=0.5;entryDx=0;entryDy=0;" parent="1" source="tQxNLTfu2ACjaL9QGIqL-60" target="tQxNLTfu2ACjaL9QGIqL-67" edge="1">
          <mxGeometry width="100" height="100" relative="1" as="geometry">
            <mxPoint x="190" y="280" as="sourcePoint" />
            <mxPoint x="100" y="290" as="targetPoint" />
            <Array as="points">
              <mxPoint x="130" y="315" />
            </Array>
          </mxGeometry>
        </mxCell>
        <mxCell id="tQxNLTfu2ACjaL9QGIqL-85" value="" style="edgeStyle=orthogonalEdgeStyle;fontSize=12;html=1;endArrow=ERzeroToMany;startArrow=ERmandOne;rounded=0;" parent="1" source="tQxNLTfu2ACjaL9QGIqL-53" target="tQxNLTfu2ACjaL9QGIqL-67" edge="1">
          <mxGeometry width="100" height="100" relative="1" as="geometry">
            <mxPoint x="560" y="320" as="sourcePoint" />
            <mxPoint x="470" y="340" as="targetPoint" />
            <Array as="points">
              <mxPoint x="560" y="315" />
            </Array>
          </mxGeometry>
        </mxCell>
        <mxCell id="tQxNLTfu2ACjaL9QGIqL-86" value="" style="edgeStyle=orthogonalEdgeStyle;fontSize=12;html=1;endArrow=ERzeroToMany;startArrow=ERmandOne;rounded=0;" parent="1" source="tQxNLTfu2ACjaL9QGIqL-53" target="tQxNLTfu2ACjaL9QGIqL-81" edge="1">
          <mxGeometry width="100" height="100" relative="1" as="geometry">
            <mxPoint x="570" y="286" as="sourcePoint" />
            <mxPoint x="480" y="480" as="targetPoint" />
            <Array as="points">
              <mxPoint x="650" y="470" />
            </Array>
          </mxGeometry>
        </mxCell>
        <mxCell id="tQxNLTfu2ACjaL9QGIqL-87" value="" style="edgeStyle=orthogonalEdgeStyle;fontSize=12;html=1;endArrow=ERzeroToMany;startArrow=ERmandOne;rounded=0;" parent="1" source="tQxNLTfu2ACjaL9QGIqL-74" target="tQxNLTfu2ACjaL9QGIqL-81" edge="1">
          <mxGeometry width="100" height="100" relative="1" as="geometry">
            <mxPoint x="480" y="690" as="sourcePoint" />
            <mxPoint x="290" y="619.5" as="targetPoint" />
            <Array as="points">
              <mxPoint x="328" y="660" />
            </Array>
          </mxGeometry>
        </mxCell>
      </root>
    </mxGraphModel>
  </diagram>
</mxfile>
